<svg xmlns="http://www.w3.org/2000/svg" width="1400" height="788" viewBox="0 0 1400 788" role="img" aria-label="장마철 차량 비상 준비물을 보여주는 이미지">
  <defs><linearGradient id="bg" x1="0" x2="1" y1="0" y2="1"><stop offset="0" stop-color="#fff7ed"/><stop offset="1" stop-color="#e0f2fe"/></linearGradient><filter id="shadow"><feDropShadow dx="0" dy="16" stdDeviation="17" flood-color="#173b5d" flood-opacity=".15"/></filter></defs>
  <rect width="1400" height="788" fill="#f8fafc"/><rect x="70" y="58" width="1260" height="672" rx="48" fill="url(#bg)" stroke="#d7e8f8" stroke-width="4" filter="url(#shadow)"/>
  <rect x="160" y="120" width="1080" height="345" rx="42" fill="#bae6fd" stroke="#7dd3fc" stroke-width="4"/>
  <g opacity=".65" stroke="#fff" stroke-width="5" stroke-linecap="round"><path d="M230 155l-36 110M342 140l-38 126M520 165l-32 102M905 146l-42 134M1070 160l-35 110M1170 135l-44 132"/></g>
  <path d="M120 500c250-42 480-55 675-22 170 29 335 10 485-40v210H120Z" fill="#334155" opacity=".92"/>
  <rect x="220" y="445" width="960" height="172" rx="36" fill="#fff" stroke="#e2e8f0" stroke-width="4"/>
  <g transform="translate(330 505)">
    <rect x="0" y="30" width="250" height="38" rx="19" fill="#ef4444" stroke="#991b1b" stroke-width="4"/><rect x="-34" y="8" width="78" height="82" rx="12" fill="#1e293b"/><rect x="218" y="6" width="52" height="86" rx="12" fill="#1e293b"/><circle cx="128" cy="49" r="10" fill="#fee2e2"/>
  </g>
  <g transform="translate(650 485)">
    <ellipse cx="78" cy="91" rx="74" ry="42" fill="#22c55e" stroke="#15803d" stroke-width="5"/><path d="M35 78c40 16 82 16 125 0" stroke="#fff" stroke-width="8" fill="none" stroke-linecap="round"/><path d="M38 42h86c24 0 42 25 34 51H28c-22-13-16-51 10-51Z" fill="#dcfce7" stroke="#15803d" stroke-width="4"/>
    <ellipse cx="200" cy="91" rx="74" ry="42" fill="#16a34a" stroke="#166534" stroke-width="5"/><path d="M157 78c40 16 82 16 125 0" stroke="#fff" stroke-width="8" fill="none" stroke-linecap="round"/><path d="M160 42h86c24 0 42 25 34 51H150c-22-13-16-51 10-51Z" fill="#bbf7d0" stroke="#166534" stroke-width="4"/>
  </g>
  <g transform="translate(970 470)">
    <rect x="0" y="0" width="126" height="150" rx="24" fill="#60a5fa" opacity=".86" stroke="#1d4ed8" stroke-width="6"/><rect x="28" y="28" width="70" height="92" rx="12" fill="#0f172a"/><circle cx="63" cy="132" r="9" fill="#dbeafe"/><path d="M18 18c24 10 66 10 90 0" stroke="#bfdbfe" stroke-width="6" fill="none"/>
  </g>
  <g transform="translate(142 148)"><circle cx="75" cy="75" r="62" fill="#fff" opacity=".92" stroke="#0ea5e9" stroke-width="8"/><path d="M42 78l27 27 45-68" stroke="#22c55e" stroke-width="13" fill="none" stroke-linecap="round" stroke-linejoin="round"/></g>
</svg>
